<svg xmlns="http://www.w3.org/2000/svg" viewBox="0 0 400 400" role="img" aria-label="BeauTeas">
  <rect width="400" height="400" fill="#f5ebe6"/>
  <g fill="none" stroke="#cf8577" stroke-width="6" stroke-linecap="round" stroke-linejoin="round" opacity="0.7">
    <path d="M140 175 h95 a10 10 0 0 1 10 10 v40 a55 55 0 0 1 -55 55 h-5 a55 55 0 0 1 -55 -55 v-40 a10 10 0 0 1 10 -10 z"/>
    <path d="M245 190 h20 a22 22 0 0 1 0 44 h-8"/>
    <path d="M175 150 c-8 -14 4 -26 10 -34 c4 12 -2 24 -10 34 z" fill="#cf8577" stroke="none" opacity="0.8"/>
    <path d="M200 150 c-8 -14 4 -26 10 -34 c4 12 -2 24 -10 34 z" fill="#cf8577" stroke="none" opacity="0.8"/>
  </g>
  <text x="200" y="330" text-anchor="middle" font-family="Georgia, serif" font-size="22" fill="#99544a" opacity="0.75">BeauTeas</text>
</svg>
